<?xml version="1.0" encoding="UTF-8"?>
<svg version="1.1" xmlns="http://www.w3.org/2000/svg" width="64" height="64">
<path d="M0 0 C5.82485779 3.51996782 10.54466582 8.98962934 12.5625 15.5 C13.36764105 23.33608208 13.68710392 31.11922577 8.5625 37.5 C3.7533393 42.55012074 -0.60875104 46.15152049 -7.7421875 46.80078125 C-14.38426269 46.82258237 -19.60512832 46.83278382 -25.4375 43.5 C-25.4375 42.51 -25.4375 41.52 -25.4375 40.5 C-22.96762537 40.97211763 -20.53826809 41.47222527 -18.11328125 42.140625 C-11.57242278 43.82719346 -6.55952788 43.46891264 -0.4375 40.5 C1.59371775 38.95718742 2.94225496 37.49830221 4.5625 35.5 C3.5725 35.5 2.5825 35.5 1.5625 35.5 C-0.7475 28.57 -3.0575 21.64 -5.4375 14.5 C-7.4175 18.955 -7.4175 18.955 -9.4375 23.5 C-10.7575 23.5 -12.0775 23.5 -13.4375 23.5 C-14.9225 18.55 -14.9225 18.55 -16.4375 13.5 C-17.0975 13.5 -17.7575 13.5 -18.4375 13.5 C-18.52902344 14.28632813 -18.62054687 15.07265625 -18.71484375 15.8828125 C-19.65511004 20.58922647 -21.29736798 24.89758352 -23 29.375 C-23.32935547 30.25414063 -23.65871094 31.13328125 -23.99804688 32.0390625 C-24.80636614 34.19458053 -25.61962294 36.34809441 -26.4375 38.5 C-27.7575 38.5 -29.0775 38.5 -30.4375 38.5 C-36.10753335 31.20995712 -36.12432058 24.45852933 -35.4375 15.5 C-33.77311428 8.84245713 -28.96538702 4.30878622 -23.4375 0.5 C-16.65568202 -2.91366677 -6.96443471 -3.08620048 0 0 Z M-25.8125 5.6875 C-31.61227311 11.90154262 -33.04617871 17.21575288 -32.77734375 25.7109375 C-32.34044444 29.29652496 -31.42752529 31.51496207 -29.4375 34.5 C-26.54153117 30.15604676 -25.07872384 25.39300173 -23.3125 20.5 C-22.93996094 19.489375 -22.56742188 18.47875 -22.18359375 17.4375 C-21.83167969 16.468125 -21.47976562 15.49875 -21.1171875 14.5 C-20.79476074 13.613125 -20.47233398 12.72625 -20.14013672 11.8125 C-19.29214029 9.42441073 -19.29214029 9.42441073 -19.4375 6.5 C-18.1175 6.5 -16.7975 6.5 -15.4375 6.5 C-15.31375 7.221875 -15.19 7.94375 -15.0625 8.6875 C-14.4470069 11.45721894 -13.55305626 13.8970354 -12.4375 16.5 C-11.7775 16.5 -11.1175 16.5 -10.4375 16.5 C-8.14704986 11.68790099 -8.14704986 11.68790099 -7.4375 6.5 C-6.1175 6.5 -4.7975 6.5 -3.4375 6.5 C-3.0971875 8.2634375 -3.0971875 8.2634375 -2.75 10.0625 C-1.61637213 15.22954297 0.06079892 20.19336727 1.79760742 25.18188477 C2.97761379 28.60018915 3.9566296 31.93285295 4.5625 35.5 C7.87546104 32.40077838 9.38234744 30.49349148 9.80078125 25.86328125 C9.96288832 19.19982729 9.80330219 13.86689091 5.5625 8.5 C-3.19950345 -0.54464872 -15.5446579 -1.89728788 -25.8125 5.6875 Z " fill="#FFFFFF" transform="translate(43.4375,9.5)"/>
</svg>
